<svg width="1258" height="1398" viewBox="0 0 1258 1398" fill="none" xmlns="http://www.w3.org/2000/svg">
<path d="M139.778 1397.78C101.339 1397.78 68.4329 1384.09 41.0597 1356.72C13.6866 1329.34 0 1296.44 0 1258V279.556C0 241.117 13.6866 208.211 41.0597 180.838C68.4329 153.464 101.339 139.778 139.778 139.778H209.667V0H349.444V139.778H908.556V0H1048.33V139.778H1118.22C1156.66 139.778 1189.57 153.464 1216.94 180.838C1244.31 208.211 1258 241.117 1258 279.556V1258C1258 1296.44 1244.31 1329.34 1216.94 1356.72C1189.57 1384.09 1156.66 1397.78 1118.22 1397.78H139.778ZM139.778 1258H1118.22V559.111H139.778V1258ZM139.778 419.333H1118.22V279.556H139.778V419.333Z" fill="#FDDC02"/>
<path d="M0 559.111V279.556C0 241.117 13.6866 208.211 41.0597 180.838C68.4329 153.464 101.339 139.778 139.778 139.778H209.667V0H349.444V139.778H908.555V0H1048.33V139.778H1118.22C1156.66 139.778 1189.57 153.464 1216.94 180.838C1244.31 208.211 1258 241.117 1258 279.556V559.111H0Z" fill="#EB1923"/>
<ellipse cx="348.785" cy="1050.97" rx="70.5482" ry="69.8889" fill="#211E1E"/>
<ellipse cx="628.341" cy="1050.97" rx="70.5482" ry="69.8889" fill="#211E1E"/>
<ellipse cx="628.341" cy="768.778" rx="70.5482" ry="69.8889" fill="#211E1E"/>
<ellipse cx="348.785" cy="768.778" rx="70.5482" ry="69.8889" fill="#EB1923"/>
<path d="M1113 522.155C1119.2 519.926 1125.34 516.991 1131.48 514.055C1132.3 513.348 1136.16 512.587 1148.5 512.587V508.89C1148.5 505.248 1146.98 504.541 1144.64 503.78C1142.3 503.78 1139.2 503.019 1136.16 503.019C1129.2 503.019 1123 503.78 1120.72 506.715C1116.86 511.119 1113 514.816 1109.9 518.458C1110.72 519.926 1112.24 521.449 1113 522.155ZM1040.48 546.457C1035.09 536.127 1029.71 526.559 1022.75 518.459C1019.65 514.816 1011.23 514.816 1008.89 518.459C1005.03 522.917 1003.45 531.724 1001.93 540.531C1001.17 541.999 1001.17 543.521 1001.93 544.989C1003.45 545.696 1004.27 547.163 1005.79 547.924C1007.31 549.392 1008.89 548.631 1010.41 547.924C1013.51 544.989 1014.27 540.531 1013.51 535.42L1018.13 533.192C1019.65 534.659 1020.42 538.356 1021.23 541.999V545.695C1020.42 547.924 1022.75 549.393 1025.85 549.393C1030.47 548.631 1035.09 547.164 1040.48 546.457ZM1022.75 633.279L1020.69 618.6C1020.69 615.121 1019.87 611.369 1019.11 607.51L1018.13 600.877C1015.04 597.18 1010.41 593.537 1008.13 589.841C984.97 585.437 964.148 580.272 941.805 575.107C937.945 574.4 935.607 572.933 933.27 570.704C924.027 561.896 917.884 552.328 913.263 542.76C909.403 532.485 914.785 526.558 927.126 524.384C943.328 522.156 960.289 519.927 977.252 518.459C981.873 517.752 984.972 516.284 987.309 514.055C1011.23 491.276 1044.39 486.872 1079.08 489.808C1089.84 490.515 1109.9 494.918 1121.49 491.276C1157.75 489.046 1167.75 504.541 1162.37 528.788C1160.85 533.952 1161.61 539.824 1162.37 545.695C1173.19 574.4 1180.09 603.105 1171.61 633.278C1160.85 658.287 1150.03 684.001 1159.27 700.964C1170.85 726.68 1177.81 752.448 1170.09 775.989C1162.37 810.566 1143.07 851.013 1152.37 881.948C1160.85 902.553 1176.23 965.779 1187.05 996.714C1193.19 1018.02 1204.77 1033.52 1217.12 1048.96C1227.17 1063.64 1234.13 1077.61 1238.75 1091.64C1232.56 1091.64 1227.17 1092.34 1220.98 1092.34C1232.56 1157.8 1240.28 1251.25 1258 1266.69C1256.48 1271.09 1255.72 1276.26 1254.14 1280.66C1254.14 1285.12 1245.66 1287.29 1242.61 1292.46C1220.22 1342.48 1187.81 1371.18 1124.59 1388.09V1385.91C1117.68 1368.41 1106.27 1344.38 1095.56 1323.88C1117.03 1310.73 1136.98 1296.81 1150.03 1282.89C1057.45 1201.94 1054.4 1176.17 1038.2 1090.1C1038.2 1086.46 1036.62 1084.99 1034.34 1084.99C1031.24 1084.99 1028.2 1085.7 1025.1 1085.7C1032.82 1113.7 1039.72 1141.64 1047.44 1168.82C989.598 1210.79 955.672 1244.61 943.331 1335.84C938.71 1352.8 927.13 1356.44 914.028 1353.5C893.206 1346.17 873.906 1342.47 857.705 1343.23C827.64 1339.53 798.338 1327.03 769.034 1309.36C773.655 1286.53 777.515 1264.51 782.136 1241.67C790.617 1244.61 799.859 1248.31 806.058 1247.55C814.539 1249.01 817.638 1250.48 821.444 1254.18C824.543 1256.41 826.88 1259.34 836.123 1258.58C840.744 1258.58 859.283 1268.91 865.426 1263.75C848.463 1138.71 883.91 1091.63 974.158 1030.52C977.257 1029.05 978.833 1029.75 982.639 1031.98C986.499 1035.68 989.598 1039.38 993.457 1043.02C1001.18 1046.01 1001.94 1040.79 997.318 1036.39C965.678 1018.77 952.575 986.369 946.432 948.857C945.616 947.389 947.193 944.454 940.234 947.39C806.821 992.296 782.144 974.627 694.227 901.016L716.734 864.374C722.442 855.403 728.205 846.432 734.077 837.354C763.814 854.152 779.092 871.714 789.04 889.274C792.139 893.677 794.477 892.971 797.576 890.741C838.459 867.201 880.049 845.891 921.747 825.286C920.932 822.35 920.171 819.414 920.171 817.185C910.929 822.35 901.687 827.46 892.444 831.864C787.628 770.92 728.258 778.15 694.285 638.868C695.1 639.085 696.188 638.924 697.275 638.378C715.759 628.538 732.885 619.948 751.913 610.217L754.359 608.968C767.461 625.169 775.943 649.415 782.14 676.653C780.564 678.882 783.662 682.525 785.239 683.286C833.027 695.79 880.053 708.294 927.129 719.33C914.027 740.696 904.784 759.017 900.871 770.814C897.826 786.254 894.727 799.519 894.727 804.63H903.208C917.126 728.898 935.61 701.661 1011.99 667.846C1011.99 662.681 1011.23 656.809 1011.23 651.644C1000.41 653.819 989.595 653.819 978.831 651.644C973.395 650.176 968.012 648.708 959.532 648.708C940.993 642.782 947.19 625.875 956.433 627.342C971.873 625.167 982.637 627.342 991.173 630.278C995.033 632.507 1007.32 633.279 1022.75 633.279Z" fill="#211E1E"/>
<path d="M1113 522.152C1112.24 521.445 1110.72 519.923 1109.9 518.455C1113 514.813 1116.86 511.116 1120.72 506.712C1123 503.777 1129.2 503.016 1136.16 503.016C1139.2 503.016 1142.3 503.777 1144.64 503.777C1146.98 504.538 1148.5 505.245 1148.5 508.887V512.584C1136.16 512.584 1132.3 513.345 1131.48 514.052C1125.34 516.988 1119.2 519.923 1113 522.152Z" fill="white"/>
<path d="M1040.49 546.37C1035.05 547.077 1030.43 548.545 1025.81 549.306C1022.71 549.306 1020.43 547.838 1021.19 545.609V541.967C1020.43 538.27 1019.66 534.573 1018.09 533.105L1013.47 535.334C1014.23 540.445 1013.47 544.903 1010.37 547.838C1008.85 548.545 1007.27 549.306 1005.75 547.838C1004.23 547.077 1003.41 545.609 1001.89 544.903C1001.13 543.38 1001.13 541.967 1001.89 540.445C1003.41 531.637 1004.99 522.83 1008.85 518.373C1011.13 514.73 1019.66 514.73 1022.71 518.373C1029.67 526.473 1035.05 536.041 1040.49 546.37Z" fill="white"/>
<path d="M1018.22 601.623C1018.49 603.58 1018.82 605.591 1019.2 607.549L1020.77 618.585C1012.4 619.238 1002.56 619.292 991.253 619.998C981.956 620.705 971.953 620.705 961.949 620.705C950.369 619.998 944.172 619.998 938.789 619.998C935.69 619.998 932.591 619.237 929.547 618.53C918.728 615.595 909.486 609.723 904.05 600.862C899.429 592.762 899.429 578.79 911.77 569.222C914.868 567.047 917.967 569.983 917.967 572.157C917.967 585.422 921.827 594.229 927.971 597.927C942.649 600.863 956.513 600.863 970.376 600.863C983.533 600.156 999.734 600.861 1018.22 601.623Z" fill="#EB1923"/>
<path d="M753.649 603.71C754.41 605.938 754.41 607.406 754.41 608.874C734.349 619.149 714.288 628.718 694.282 638.286C687.323 634.644 679.603 630.186 674.221 626.543C670.361 622.846 674.221 618.443 678.842 620.672C684.224 622.14 689.606 623.607 695.805 625.075H698.904C695.044 618.443 685.747 611.103 678.081 604.47L680.365 600.067C686.508 603.003 693.467 605.939 700.426 608.874L688.846 591.206C689.607 590.499 691.184 589.738 692.706 588.27C701.187 597.077 709.669 605.938 718.91 611.81C716.627 600.067 712.767 589.031 708.146 577.995L712.767 575.765C718.91 586.802 725.868 597.076 734.35 606.7C730.49 598.6 725.108 589.032 718.148 580.17C715.05 573.592 723.585 572.831 725.868 574.299C736.687 581.638 744.406 591.966 753.649 603.71Z" fill="#EB1923"/>
<path d="M716.765 864.25C709.154 876.319 701.706 888.388 694.203 901.001L716.765 864.25ZM734.108 837.284C728.073 846.581 722.419 855.388 716.765 864.25L734.108 837.284ZM734.325 836.959L716.765 864.25L694.203 901.001C691.159 898.771 688.821 896.543 685.722 894.314C684.2 892.9 674.196 887.735 668.759 884.038C667.237 881.864 667.998 879.635 671.097 878.874C676.479 878.167 681.861 878.167 687.298 877.46C681.101 874.47 674.957 870.827 668.76 867.837C668.76 866.424 668.76 864.195 669.575 862.727C676.48 862.727 683.439 862.02 690.398 862.02C684.961 857.562 677.241 853.865 673.381 849.462C670.336 844.297 675.718 842.122 678.002 843.59C685.722 844.297 693.442 845.819 700.401 845.058L685.722 831.086C686.538 829.618 688.06 828.15 688.821 827.389C695.78 829.618 703.5 832.554 710.404 835.49C707.36 831.086 704.261 825.921 701.162 821.518C701.923 820.05 702.684 820.05 704.261 818.582C718.94 826.683 728.941 832.555 734.325 836.959Z" fill="#EB1923"/>
<path d="M1095.32 1323.25C1105.27 1345.16 1114.46 1366.36 1124.41 1387.57C1116.91 1391.7 1109.95 1394.63 1103.8 1397.57C1107.66 1390.94 1111.52 1384.36 1114.57 1377.67C1106.9 1382.84 1099.18 1388.76 1091.46 1394.63C1096.84 1386.53 1101.46 1378.43 1106.09 1370.33C1096.84 1371.8 1086.84 1374.03 1077.6 1376.2C1085.26 1368.87 1092.98 1362.23 1100.7 1354.89C1092.22 1357.83 1084.5 1361.53 1076.78 1364.46C1081.4 1357.12 1086.84 1350.49 1091.46 1343.86C1083.74 1343.86 1075.26 1344.56 1068.3 1345.32C1076.78 1337.99 1086.03 1330.59 1095.32 1323.25Z" fill="#EB1923"/>
<path d="M769.095 1309.34L749.034 1310.81L766.757 1296.83L738.215 1289.49L767.518 1278.46L744.413 1265.19L770.616 1261.5L748.217 1243.12L778.337 1245.35L759.798 1235.78L782.197 1241.65L769.095 1309.34Z" fill="#EB1923"/>
</svg>
