<svg width="13322" height="2174" viewBox="0 0 13322 2174" fill="none" xmlns="http://www.w3.org/2000/svg">
<path d="M9919.89 1927.75L9585.9 1523.22L9708.77 1180.12L9823.01 1239.23L9716.93 1515.1L10020.8 1869.79L9919.89 1927.75ZM9404.36 1190.55H9535.16L9727.72 1909.2H9596.92L9404.36 1190.55ZM10007.8 1909.2L9970 1190.55H10114L10460.2 1909.2H10324.6L10251.7 1753.88L10278.6 1773.58H10113L10125.7 1753.88L10139.8 1909.2H10007.8ZM10112.8 1687.81L10097.1 1673.9H10244.7L10231.6 1687.81L10092.1 1359.78L10085 1337.76H10075.4L10080.1 1359.78L10112.8 1687.81ZM10286.3 1190.55H10417.1L10583.2 1810.68H10799.2L10825.6 1909.2H10478.8L10286.3 1190.55ZM10655.7 1190.55H11022.9L11049.3 1289.08H10812.9L10860.1 1465.26H11071.3L11080.9 1563.78H10886.5L10952.7 1810.68H11189.1L11215.5 1909.2H10848.3L10655.7 1190.55ZM11248.2 1909.2L11055.7 1190.55H11186.5L11451.3 1641.45L11453.2 1648.4H11454.4L11331.7 1190.55H11462.5L11655 1909.2H11520.6L11271.2 1502.35L11267.8 1494.24H11266.6L11377.8 1909.2H11248.2ZM11515.4 1190.55H11802.2C11839.8 1190.55 11867.3 1199.05 11884.6 1216.05C11902 1233.05 11915.5 1259.71 11925.2 1296.03L12061 1802.56C12070.9 1839.65 12071.8 1866.7 12063.5 1883.7C12056.1 1900.7 12032.7 1909.2 11993.5 1909.2H11707.9L11515.4 1190.55ZM11886.7 1810.68C11905.9 1810.68 11917.2 1806.43 11920.5 1797.93C11923.8 1789.43 11923.2 1776.67 11918.7 1759.67L11805.9 1338.92C11801.4 1321.92 11794.9 1309.55 11786.4 1301.83C11778.5 1293.33 11767 1289.08 11751.8 1289.08H11671.4L11811.1 1810.68H11886.7ZM11943.4 1190.55H12310.6L12337 1289.08H12100.6L12147.8 1465.26H12359L12368.6 1563.78H12174.2L12240.4 1810.68H12476.8L12503.2 1909.2H12136L11943.4 1190.55ZM12343.4 1190.55H12617C12651.4 1190.55 12677.7 1194.8 12696 1203.3C12714.9 1211.03 12729 1223.39 12738.3 1240.39C12748.3 1256.62 12756.6 1277.1 12763.2 1301.83L12803.3 1451.35C12810.7 1479.17 12815.4 1505.44 12817.2 1530.17C12818.8 1554.13 12811.7 1573.83 12795.8 1589.29C12779.8 1603.97 12748.9 1611.31 12703.3 1611.31H12586.9L12666.7 1909.2H12535.9L12343.4 1190.55ZM12849.4 1932.38L12628.3 1604.35L12714.9 1600.88L12754.6 1610.15L12762.2 1615.94L12958.4 1887.18L12849.4 1932.38ZM12633.7 1512.78C12653.7 1512.78 12666.8 1507.76 12672.9 1497.72C12678.8 1486.9 12678.3 1468.74 12671.5 1443.24L12649.4 1360.94C12641.2 1330.03 12632.3 1310.33 12622.8 1301.83C12614.1 1293.33 12599.8 1289.08 12579.8 1289.08H12500.6L12560.5 1512.78H12633.7Z" fill="#EB1923"/>
<mask id="path-2-outside-1_1334_2" maskUnits="userSpaceOnUse" x="2239.9" y="537.055" width="1178.09" height="1433.43" fill="black">
<rect fill="white" x="2239.9" y="537.055" width="1178.09" height="1433.43"/>
<path d="M2316.22 595.01H2989.42L3037.82 775.638H2604.42L2690.97 1098.64H3078.17L3095.77 1279.27H2739.37L2860.65 1731.9H3294.05L3342.45 1912.53H2669.25L2316.22 595.01Z"/>
</mask>
<path d="M2316.22 595.01H2989.42L3037.82 775.638H2604.42L2690.97 1098.64H3078.17L3095.77 1279.27H2739.37L2860.65 1731.9H3294.05L3342.45 1912.53H2669.25L2316.22 595.01Z" fill="#EB1923"/>
<path d="M2316.22 595.01L2300.69 537.055H2240.69L2256.22 595.01H2316.22ZM2989.42 595.01H3049.42L3033.89 537.055H2973.89L2989.42 595.01ZM3037.82 775.638L3053.35 833.594H3113.35L3097.82 775.638H3037.82ZM2604.42 775.638L2588.89 717.683H2528.89L2544.42 775.638H2604.42ZM2690.97 1098.64H2630.97L2646.5 1156.6H2706.5L2690.97 1098.64ZM3078.17 1098.64L3139.9 1108.06L3133.33 1040.69H3062.64L3078.17 1098.64ZM3095.77 1279.27L3111.3 1337.23H3162.23L3157.5 1288.69L3095.77 1279.27ZM2739.37 1279.27L2723.84 1221.32H2663.84L2679.37 1279.27H2739.37ZM2860.65 1731.9H2800.65L2816.18 1789.86H2876.18L2860.65 1731.9ZM3294.05 1731.9H3354.05L3338.52 1673.95H3278.52L3294.05 1731.9ZM3342.45 1912.53L3357.98 1970.49H3417.98L3402.45 1912.53H3342.45ZM2669.25 1912.53H2609.25L2624.78 1970.49H2684.78L2669.25 1912.53ZM2316.22 595.01L2331.75 652.966H3004.95L2989.42 595.01L2973.89 537.055H2300.69L2316.22 595.01ZM2989.42 595.01H2929.42L2977.82 775.638H3037.82H3097.82L3049.42 595.01H2989.42ZM3037.82 775.638L3022.29 717.683H2588.89L2604.42 775.638L2619.95 833.594H3053.35L3037.82 775.638ZM2604.42 775.638H2544.42L2630.97 1098.64H2690.97H2750.97L2664.42 775.638H2604.42ZM2690.97 1098.64L2706.5 1156.6H3093.7L3078.17 1098.64L3062.64 1040.69H2675.44L2690.97 1098.64ZM3078.17 1098.64L3016.45 1089.23L3034.04 1269.85L3095.77 1279.27L3157.5 1288.69L3139.9 1108.06L3078.17 1098.64ZM3095.77 1279.27L3080.24 1221.32H2723.84L2739.37 1279.27L2754.9 1337.23H3111.3L3095.77 1279.27ZM2739.37 1279.27H2679.37L2800.65 1731.9H2860.65H2920.65L2799.37 1279.27H2739.37ZM2860.65 1731.9L2876.18 1789.86H3309.58L3294.05 1731.9L3278.52 1673.95H2845.12L2860.65 1731.9ZM3294.05 1731.9H3234.05L3282.45 1912.53H3342.45H3402.45L3354.05 1731.9H3294.05ZM3342.45 1912.53L3326.92 1854.58H2653.72L2669.25 1912.53L2684.78 1970.49H3357.98L3342.45 1912.53ZM2669.25 1912.53H2729.25L2376.22 595.01H2316.22H2256.22L2609.25 1912.53H2669.25Z" fill="#FDDC02" mask="url(#path-2-outside-1_1334_2)"/>
<mask id="path-4-outside-2_1334_2" maskUnits="userSpaceOnUse" x="3187.83" y="883.12" width="4847.34" height="1132.07" fill="black">
<rect fill="white" x="3187.83" y="883.12" width="4847.34" height="1132.07"/>
<path d="M3266.15 950.735H3440.55L3697.3 1908.93H3522.9L3266.15 950.735ZM4146.02 1919.75C4099.09 1919.75 4053.99 1916.66 4010.74 1910.48C3968.55 1904.3 3932.84 1892.45 3903.61 1874.93C3875.18 1856.39 3856.4 1830.11 3847.29 1796.11L3789.32 1579.75L3957.15 1561.2L4001.46 1726.57C4006.43 1745.11 4015.77 1760.05 4029.47 1771.39C4043.96 1781.69 4067.74 1786.84 4100.81 1786.84C4122.14 1786.84 4137.99 1784.26 4148.34 1779.11C4158.42 1772.93 4164.21 1764.69 4165.71 1754.39C4167.22 1744.08 4165.9 1731.2 4161.76 1715.75L4134.02 1612.2C4126.56 1584.38 4113 1559.65 4093.34 1538.02C4074.74 1516.38 4046.46 1500.41 4008.5 1490.11L3889.4 1457.65C3838.61 1443.23 3799.5 1424.68 3772.1 1402.02C3745.76 1379.35 3726.1 1343.8 3713.12 1295.38L3659.29 1094.46C3647.14 1049.13 3649.9 1015.64 3667.57 994.008C3685.24 972.371 3713.51 958.462 3752.39 952.28C3790.99 945.068 3834.29 941.462 3882.29 941.462C3928.16 941.462 3970.19 945.068 4008.39 952.28C4047.66 959.492 4080.44 972.371 4106.74 990.917C4133.84 1008.43 4151.66 1033.16 4160.22 1065.1L4218.2 1281.47L4051.61 1304.65L4009.78 1148.56C4001.22 1116.62 3989.84 1096.01 3975.62 1086.74C3962.19 1076.43 3940.54 1071.28 3910.68 1071.28C3879.74 1071.28 3859.53 1077.46 3850.05 1089.83C3840.28 1101.16 3840.09 1124.34 3849.48 1159.37L3873.5 1249.01C3879.85 1272.71 3891.12 1294.86 3907.31 1315.47C3924.28 1335.04 3946.68 1348.95 3974.49 1357.2L4107.63 1394.29C4161.9 1409.74 4202.88 1429.32 4230.56 1453.02C4259.04 1475.68 4279.76 1511.23 4292.74 1559.65L4346.98 1762.11C4358.86 1806.42 4357.16 1839.9 4341.9 1862.57C4326.64 1885.24 4301.45 1900.69 4266.32 1908.93C4231.99 1916.15 4191.89 1919.75 4146.02 1919.75ZM4313.65 950.735H4803.25L4838.45 1082.1H4523.25L4586.2 1317.01H4867.8L4880.59 1448.38H4621.39L4709.6 1777.57H5024.8L5060 1908.93H4570.4L4313.65 950.735ZM4974.9 950.735H5339.7C5385.57 950.735 5420.69 956.402 5445.06 967.735C5470.22 978.038 5489.03 994.523 5501.51 1017.19C5514.77 1038.83 5525.82 1066.13 5534.66 1099.1L5588.08 1298.47C5598.01 1335.56 5604.2 1370.59 5606.64 1403.56C5608.79 1435.5 5599.3 1461.77 5578.15 1482.38C5556.73 1501.96 5515.62 1511.74 5454.82 1511.74H5299.62L5406.05 1908.93H5231.65L4974.9 950.735ZM5649.53 1939.84L5354.74 1502.47L5470.3 1497.84L5523.21 1510.2L5533.28 1517.93L5794.98 1879.57L5649.53 1939.84ZM5362.02 1380.38C5388.69 1380.38 5406.1 1373.68 5414.24 1360.29C5422.11 1345.86 5421.49 1321.65 5412.38 1287.65L5382.98 1177.92C5371.93 1136.71 5360.09 1110.43 5347.46 1099.1C5335.89 1087.77 5316.77 1082.1 5290.1 1082.1H5184.5L5264.42 1380.38H5362.02ZM5952.27 1908.93L5695.53 950.735H5869.93L6223.01 1551.93L6225.5 1561.2H6227.1L6063.53 950.735H6237.93L6494.67 1908.93H6315.47L5982.92 1366.47L5978.42 1355.65H5976.82L6125.07 1908.93H5952.27ZM6436.46 950.735H6926.06L6961.26 1082.1H6646.06L6709.01 1317.01H6990.61L7003.41 1448.38H6744.21L6832.41 1777.57H7147.61L7182.81 1908.93H6693.21L6436.46 950.735ZM7097.71 950.735H7462.51C7508.38 950.735 7543.5 956.402 7567.87 967.735C7593.03 978.038 7611.85 994.523 7624.32 1017.19C7637.58 1038.83 7648.63 1066.13 7657.47 1099.1L7710.89 1298.47C7720.83 1335.56 7727.01 1370.59 7729.45 1403.56C7731.61 1435.5 7722.11 1461.77 7700.97 1482.38C7679.55 1501.96 7638.44 1511.74 7577.64 1511.74H7422.44L7528.86 1908.93H7354.46L7097.71 950.735ZM7772.34 1939.84L7477.55 1502.47L7593.11 1497.84L7646.02 1510.2L7656.09 1517.93L7917.79 1879.57L7772.34 1939.84ZM7484.84 1380.38C7511.5 1380.38 7528.91 1373.68 7537.05 1360.29C7544.92 1345.86 7544.3 1321.65 7535.19 1287.65L7505.79 1177.92C7494.74 1136.71 7482.9 1110.43 7470.27 1099.1C7458.7 1087.77 7439.58 1082.1 7412.91 1082.1H7307.31L7387.24 1380.38H7484.84Z"/>
</mask>
<path d="M3266.15 950.735H3440.55L3697.3 1908.93H3522.9L3266.15 950.735ZM4146.02 1919.75C4099.09 1919.75 4053.99 1916.66 4010.74 1910.48C3968.55 1904.3 3932.84 1892.45 3903.61 1874.93C3875.18 1856.39 3856.4 1830.11 3847.29 1796.11L3789.32 1579.75L3957.15 1561.2L4001.46 1726.57C4006.43 1745.11 4015.77 1760.05 4029.47 1771.39C4043.96 1781.69 4067.74 1786.84 4100.81 1786.84C4122.14 1786.84 4137.99 1784.26 4148.34 1779.11C4158.42 1772.93 4164.21 1764.69 4165.71 1754.39C4167.22 1744.08 4165.9 1731.2 4161.76 1715.75L4134.02 1612.2C4126.56 1584.38 4113 1559.65 4093.34 1538.02C4074.74 1516.38 4046.46 1500.41 4008.5 1490.11L3889.4 1457.65C3838.61 1443.23 3799.5 1424.68 3772.1 1402.02C3745.76 1379.35 3726.1 1343.8 3713.12 1295.38L3659.29 1094.46C3647.14 1049.13 3649.9 1015.64 3667.57 994.008C3685.24 972.371 3713.51 958.462 3752.39 952.28C3790.99 945.068 3834.29 941.462 3882.29 941.462C3928.16 941.462 3970.19 945.068 4008.39 952.28C4047.66 959.492 4080.44 972.371 4106.74 990.917C4133.84 1008.43 4151.66 1033.16 4160.22 1065.1L4218.2 1281.47L4051.61 1304.65L4009.78 1148.56C4001.22 1116.62 3989.84 1096.01 3975.62 1086.74C3962.19 1076.43 3940.54 1071.28 3910.68 1071.28C3879.74 1071.28 3859.53 1077.46 3850.05 1089.83C3840.28 1101.16 3840.09 1124.34 3849.48 1159.37L3873.5 1249.01C3879.85 1272.71 3891.12 1294.86 3907.31 1315.47C3924.28 1335.04 3946.68 1348.95 3974.49 1357.2L4107.63 1394.29C4161.9 1409.74 4202.88 1429.32 4230.56 1453.02C4259.04 1475.68 4279.76 1511.23 4292.74 1559.65L4346.98 1762.11C4358.86 1806.42 4357.16 1839.9 4341.9 1862.57C4326.64 1885.24 4301.45 1900.69 4266.32 1908.93C4231.99 1916.15 4191.89 1919.75 4146.02 1919.75ZM4313.65 950.735H4803.25L4838.45 1082.1H4523.25L4586.2 1317.01H4867.8L4880.59 1448.38H4621.39L4709.6 1777.57H5024.8L5060 1908.93H4570.4L4313.65 950.735ZM4974.9 950.735H5339.7C5385.57 950.735 5420.69 956.402 5445.06 967.735C5470.22 978.038 5489.03 994.523 5501.51 1017.19C5514.77 1038.83 5525.82 1066.13 5534.66 1099.1L5588.08 1298.47C5598.01 1335.56 5604.2 1370.59 5606.64 1403.56C5608.79 1435.5 5599.3 1461.77 5578.15 1482.38C5556.73 1501.96 5515.62 1511.74 5454.82 1511.74H5299.62L5406.05 1908.93H5231.65L4974.9 950.735ZM5649.53 1939.84L5354.74 1502.47L5470.3 1497.84L5523.21 1510.2L5533.28 1517.93L5794.98 1879.57L5649.53 1939.84ZM5362.02 1380.38C5388.69 1380.38 5406.1 1373.68 5414.24 1360.29C5422.11 1345.86 5421.49 1321.65 5412.38 1287.65L5382.98 1177.92C5371.93 1136.71 5360.09 1110.43 5347.46 1099.1C5335.89 1087.77 5316.77 1082.1 5290.1 1082.1H5184.5L5264.42 1380.38H5362.02ZM5952.27 1908.93L5695.53 950.735H5869.93L6223.01 1551.93L6225.5 1561.2H6227.1L6063.53 950.735H6237.93L6494.67 1908.93H6315.47L5982.92 1366.47L5978.42 1355.65H5976.82L6125.07 1908.93H5952.27ZM6436.46 950.735H6926.06L6961.26 1082.1H6646.06L6709.01 1317.01H6990.61L7003.41 1448.38H6744.21L6832.41 1777.57H7147.61L7182.81 1908.93H6693.21L6436.46 950.735ZM7097.71 950.735H7462.51C7508.38 950.735 7543.5 956.402 7567.87 967.735C7593.03 978.038 7611.85 994.523 7624.32 1017.19C7637.58 1038.83 7648.63 1066.13 7657.47 1099.1L7710.89 1298.47C7720.83 1335.56 7727.01 1370.59 7729.45 1403.56C7731.61 1435.5 7722.11 1461.77 7700.97 1482.38C7679.55 1501.96 7638.44 1511.74 7577.64 1511.74H7422.44L7528.86 1908.93H7354.46L7097.71 950.735ZM7772.34 1939.84L7477.55 1502.47L7593.11 1497.84L7646.02 1510.2L7656.09 1517.93L7917.79 1879.57L7772.34 1939.84ZM7484.84 1380.38C7511.5 1380.38 7528.91 1373.68 7537.05 1360.29C7544.92 1345.86 7544.3 1321.65 7535.19 1287.65L7505.79 1177.92C7494.74 1136.71 7482.9 1110.43 7470.27 1099.1C7458.7 1087.77 7439.58 1082.1 7412.91 1082.1H7307.31L7387.24 1380.38H7484.84Z" fill="#EB1923"/>
<path d="M3266.15 950.735L3250.62 892.779H3190.62L3206.15 950.735H3266.15ZM3440.55 950.735H3500.55L3485.02 892.779H3425.02L3440.55 950.735ZM3697.3 1908.93L3712.83 1966.89H3772.83L3757.3 1908.93H3697.3ZM3522.9 1908.93H3462.9L3478.43 1966.89H3538.43L3522.9 1908.93ZM3266.15 950.735L3281.68 1008.69H3456.08L3440.55 950.735L3425.02 892.779H3250.62L3266.15 950.735ZM3440.55 950.735H3380.55L3637.3 1908.93H3697.3H3757.3L3500.55 950.735H3440.55ZM3697.3 1908.93L3681.77 1850.98H3507.37L3522.9 1908.93L3538.43 1966.89H3712.83L3697.3 1908.93ZM3522.9 1908.93H3582.9L3326.15 950.735H3266.15H3206.15L3462.9 1908.93H3522.9ZM4010.74 1910.48L4016.72 1967.72L4016.84 1967.74L4016.96 1967.76L4010.74 1910.48ZM3903.61 1874.93L3877.64 1919.79L3879.02 1920.69L3880.44 1921.54L3903.61 1874.93ZM3789.32 1579.75L3767.26 1522.14L3715.42 1527.87L3729.32 1579.75H3789.32ZM3957.15 1561.2H4017.15L3999.8 1496.45L3935.09 1503.6L3957.15 1561.2ZM4029.47 1771.39L3995.52 1810.37L3997.99 1812.41L4000.6 1814.27L4029.47 1771.39ZM4148.34 1779.11L4187.3 1831.87L4189.06 1831L4190.7 1829.99L4148.34 1779.11ZM4165.71 1754.39L4104.24 1732.86V1732.86L4165.71 1754.39ZM4093.34 1538.02L4048.95 1566.77L4049.71 1567.66L4050.5 1568.52L4093.34 1538.02ZM4008.5 1490.11L4005.89 1545.55L4005.92 1545.56L4005.96 1545.57L4008.5 1490.11ZM3889.4 1457.65L3886.01 1512.88L3886.4 1512.99L3886.79 1513.1L3889.4 1457.65ZM3772.1 1402.02L3736.84 1439.9L3737.49 1440.45L3738.15 1441L3772.1 1402.02ZM3667.57 994.008L3720.23 1035.93L3720.23 1035.93L3667.57 994.008ZM3752.39 952.28L3777.09 1009.53L3777.81 1009.41L3778.53 1009.28L3752.39 952.28ZM4008.39 952.28L4011.5 1009.05L4011.68 1009.08L4011.85 1009.11L4008.39 952.28ZM4106.74 990.917L4078.15 1034L4079.59 1035.01L4081.06 1035.96L4106.74 990.917ZM4218.2 1281.47L4241.83 1338.87L4291.72 1331.93L4278.2 1281.47H4218.2ZM4051.61 1304.65H3991.61L4009.44 1371.21L4075.24 1362.05L4051.61 1304.65ZM3975.62 1086.74L3944.17 1127.72L3946.84 1129.76L3949.64 1131.59L3975.62 1086.74ZM3850.05 1089.83L3902.04 1132.55L3902.77 1131.7L3903.45 1130.81L3850.05 1089.83ZM3907.31 1315.47L3860.59 1341.39L3861.83 1342.97L3863.16 1344.51L3907.31 1315.47ZM3974.49 1357.2L3970.25 1412.18L3970.85 1412.36L3971.46 1412.53L3974.49 1357.2ZM4107.63 1394.29L4111.07 1339.08L4110.86 1339.02L4110.65 1338.96L4107.63 1394.29ZM4230.56 1453.02L4195.48 1491.05L4196.66 1492.06L4197.88 1493.03L4230.56 1453.02ZM4341.9 1862.57L4287.06 1823.58V1823.58L4341.9 1862.57ZM4266.32 1908.93L4293.63 1965.7L4294.24 1965.57L4294.83 1965.43L4266.32 1908.93ZM4146.02 1919.75L4130.49 1861.8C4086.27 1861.8 4044.3 1858.88 4004.51 1853.2L4010.74 1910.48L4016.96 1967.76C4063.69 1974.44 4111.91 1977.71 4161.55 1977.71L4146.02 1919.75ZM4010.74 1910.48L4004.76 1853.23C3969.21 1848.02 3944.15 1838.73 3926.79 1828.33L3903.61 1874.93L3880.44 1921.54C3921.53 1946.17 3967.89 1960.57 4016.72 1967.72L4010.74 1910.48ZM3903.61 1874.93L3929.59 1830.08C3920.85 1824.38 3912.59 1815.86 3907.29 1796.11H3847.29H3787.29C3800.22 1844.37 3829.51 1888.4 3877.64 1919.79L3903.61 1874.93ZM3847.29 1796.11H3907.29L3849.32 1579.75H3789.32H3729.32L3787.29 1796.11H3847.29ZM3789.32 1579.75L3811.38 1637.35L3979.21 1618.8L3957.15 1561.2L3935.09 1503.6L3767.26 1522.14L3789.32 1579.75ZM3957.15 1561.2H3897.15L3941.46 1726.57H4001.46H4061.46L4017.15 1561.2H3957.15ZM4001.46 1726.57H3941.46C3949.44 1756.33 3966.32 1786.22 3995.52 1810.37L4029.47 1771.39L4063.42 1732.4C4063.54 1732.5 4063.71 1732.66 4063.85 1732.82C4064 1732.99 4063.99 1733.01 4063.85 1732.79C4063.57 1732.35 4062.51 1730.5 4061.46 1726.57H4001.46ZM4029.47 1771.39L4000.6 1814.27C4020.36 1828.32 4041.45 1835.47 4059.38 1839.36C4077.7 1843.32 4096.97 1844.8 4116.34 1844.8L4100.81 1786.84L4085.28 1728.88C4071.58 1728.88 4062.43 1727.78 4056.96 1726.6C4051.12 1725.33 4053.07 1724.76 4058.34 1728.5L4029.47 1771.39ZM4100.81 1786.84L4116.34 1844.8C4141.33 1844.8 4166.99 1841.98 4187.3 1831.87L4148.34 1779.11L4109.37 1726.35C4109.55 1726.27 4108.1 1727 4103.81 1727.69C4099.6 1728.38 4093.57 1728.88 4085.28 1728.88L4100.81 1786.84ZM4148.34 1779.11L4190.7 1829.99C4209.5 1818.46 4223.56 1800.72 4227.19 1775.91L4165.71 1754.39L4104.24 1732.86C4104.48 1731.19 4105.11 1729.7 4105.85 1728.66C4106.52 1727.69 4106.88 1727.68 4105.98 1728.23L4148.34 1779.11ZM4165.71 1754.39L4227.19 1775.91C4230.01 1756.64 4227.16 1735.89 4221.76 1715.75H4161.76H4101.76C4104.65 1726.52 4104.43 1731.52 4104.24 1732.86L4165.71 1754.39ZM4161.76 1715.75H4221.76L4194.02 1612.2H4134.02H4074.02L4101.76 1715.75H4161.76ZM4134.02 1612.2H4194.02C4183.95 1574.64 4164.94 1539.16 4136.18 1507.51L4093.34 1538.02L4050.5 1568.52C4061.06 1580.15 4069.17 1594.12 4074.02 1612.2H4134.02ZM4093.34 1538.02L4137.73 1509.26C4104.13 1470.18 4058.09 1447.41 4011.04 1434.64L4008.5 1490.11L4005.96 1545.57C4034.83 1553.41 4045.35 1562.58 4048.95 1566.77L4093.34 1538.02ZM4008.5 1490.11L4011.11 1434.66L3892.02 1402.21L3889.4 1457.65L3886.79 1513.1L4005.89 1545.55L4008.5 1490.11ZM3889.4 1457.65L3892.8 1402.43C3847.39 1389.53 3820.62 1375.08 3806.05 1363.03L3772.1 1402.02L3738.15 1441C3778.39 1474.28 3829.82 1496.92 3886.01 1512.88L3889.4 1457.65ZM3772.1 1402.02L3807.36 1364.13C3798.84 1356.8 3784.53 1337.94 3773.12 1295.38H3713.12H3653.12C3667.67 1349.66 3692.67 1401.89 3736.84 1439.9L3772.1 1402.02ZM3713.12 1295.38H3773.12L3719.29 1094.46H3659.29H3599.29L3653.12 1295.38H3713.12ZM3659.29 1094.46H3719.29C3709.47 1057.83 3714.85 1042.52 3720.23 1035.93L3667.57 994.008L3614.91 952.086C3584.95 988.767 3584.81 1040.44 3599.29 1094.46H3659.29ZM3667.57 994.008L3720.23 1035.93C3729.69 1024.36 3746.7 1014.36 3777.09 1009.53L3752.39 952.28L3727.69 895.034C3680.32 902.566 3640.79 920.388 3614.91 952.086L3667.57 994.008ZM3752.39 952.28L3778.53 1009.28C3813.22 1002.8 3852.89 999.417 3897.82 999.417L3882.29 941.462L3866.76 883.506C3815.7 883.506 3768.77 887.339 3726.25 895.284L3752.39 952.28ZM3882.29 941.462L3897.82 999.417C3940.54 999.417 3978.35 1002.79 4011.5 1009.05L4008.39 952.28L4005.28 895.515C3962.03 887.35 3915.77 883.506 3866.76 883.506L3882.29 941.462ZM4008.39 952.28L4011.85 1009.11C4043.53 1014.93 4064.44 1024.33 4078.15 1034L4106.74 990.917L4135.34 947.839C4096.44 920.415 4051.78 904.056 4004.93 895.45L4008.39 952.28ZM4106.74 990.917L4081.06 1035.96C4088.5 1040.77 4095.57 1047.75 4100.22 1065.1H4160.22H4220.22C4207.75 1018.57 4179.17 976.093 4132.42 945.872L4106.74 990.917ZM4160.22 1065.1H4100.22L4158.2 1281.47H4218.2H4278.2L4220.22 1065.1H4160.22ZM4218.2 1281.47L4194.56 1224.06L4027.97 1247.25L4051.61 1304.65L4075.24 1362.05L4241.83 1338.87L4218.2 1281.47ZM4051.61 1304.65H4111.61L4069.78 1148.56H4009.78H3949.78L3991.61 1304.65H4051.61ZM4009.78 1148.56H4069.78C4064.73 1129.69 4058.02 1110.9 4048.56 1093.78C4039.27 1076.97 4024.6 1056.89 4001.59 1041.88L3975.62 1086.74L3949.64 1131.59C3940.85 1125.86 3938.99 1120.71 3941.09 1124.51C3943.01 1128 3946.28 1135.49 3949.78 1148.56H4009.78ZM3975.62 1086.74L4007.06 1045.76C3970.77 1017.91 3927.33 1013.33 3895.15 1013.33L3910.68 1071.28L3926.21 1129.24C3937.97 1129.24 3945.28 1130.29 3949.06 1131.19C3952.98 1132.13 3949.9 1132.11 3944.17 1127.72L3975.62 1086.74ZM3910.68 1071.28L3895.15 1013.33C3858.85 1013.33 3818.72 1020.07 3796.64 1048.85L3850.05 1089.83L3903.45 1130.81C3901.73 1133.06 3900.63 1132.59 3904.08 1131.54C3907.68 1130.44 3914.55 1129.24 3926.21 1129.24L3910.68 1071.28ZM3850.05 1089.83L3798.06 1047.11C3784.53 1062.8 3780.75 1082.89 3780.61 1100.78C3780.46 1118.92 3784 1138.91 3789.48 1159.37H3849.48H3909.48C3905.58 1144.81 3904.52 1135.7 3904.56 1130.65C3904.6 1125.36 3905.79 1128.19 3902.04 1132.55L3850.05 1089.83ZM3849.48 1159.37H3789.48L3813.5 1249.01H3873.5H3933.5L3909.48 1159.37H3849.48ZM3873.5 1249.01H3813.5C3822.19 1281.44 3837.89 1312.5 3860.59 1341.39L3907.31 1315.47L3954.03 1289.55C3944.34 1277.23 3937.51 1263.98 3933.5 1249.01H3873.5ZM3907.31 1315.47L3863.16 1344.51C3892.36 1378.17 3929.79 1400.19 3970.25 1412.18L3974.49 1357.2L3978.73 1302.21C3963.57 1297.72 3956.21 1291.92 3951.45 1286.43L3907.31 1315.47ZM3974.49 1357.2L3971.46 1412.53L4104.6 1449.62L4107.63 1394.29L4110.65 1338.96L3977.52 1301.87L3974.49 1357.2ZM4107.63 1394.29L4104.18 1449.5C4153.44 1463.53 4181.27 1478.89 4195.48 1491.05L4230.56 1453.02L4265.65 1414.99C4224.49 1379.75 4170.36 1355.96 4111.07 1339.08L4107.63 1394.29ZM4230.56 1453.02L4197.88 1493.03C4207.04 1500.32 4221.64 1518.25 4232.74 1559.65H4292.74H4352.74C4337.88 1504.21 4311.03 1451.05 4263.24 1413L4230.56 1453.02ZM4292.74 1559.65H4232.74L4286.98 1762.11H4346.98H4406.98L4352.74 1559.65H4292.74ZM4346.98 1762.11H4286.98C4296.7 1798.36 4292.5 1815.5 4287.06 1823.58L4341.9 1862.57L4396.74 1901.55C4421.82 1864.3 4421.01 1814.47 4406.98 1762.11H4346.98ZM4341.9 1862.57L4287.06 1823.58C4278.83 1835.8 4264.07 1846.27 4237.82 1852.43L4266.32 1908.93L4294.83 1965.43C4338.83 1955.11 4374.45 1934.67 4396.74 1901.55L4341.9 1862.57ZM4266.32 1908.93L4239.02 1852.17C4209.22 1858.43 4173.22 1861.8 4130.49 1861.8L4146.02 1919.75L4161.55 1977.71C4210.56 1977.71 4254.76 1973.86 4293.63 1965.7L4266.32 1908.93ZM4313.65 950.735L4298.12 892.779H4238.12L4253.65 950.735H4313.65ZM4803.25 950.735H4863.25L4847.72 892.779H4787.72L4803.25 950.735ZM4838.45 1082.1L4853.98 1140.06H4913.98L4898.45 1082.1H4838.45ZM4523.25 1082.1L4507.72 1024.15H4447.72L4463.25 1082.1H4523.25ZM4586.2 1317.01H4526.2L4541.72 1374.97H4601.72L4586.2 1317.01ZM4867.8 1317.01L4929.52 1326.43L4922.96 1259.06H4852.27L4867.8 1317.01ZM4880.59 1448.38L4896.12 1506.34H4947.05L4942.32 1457.8L4880.59 1448.38ZM4621.39 1448.38L4605.87 1390.42H4545.87L4561.39 1448.38H4621.39ZM4709.6 1777.57H4649.6L4665.13 1835.52H4725.13L4709.6 1777.57ZM5024.8 1777.57H5084.8L5069.27 1719.61H5009.27L5024.8 1777.57ZM5060 1908.93L5075.53 1966.89H5135.53L5120 1908.93H5060ZM4570.4 1908.93H4510.4L4525.93 1966.89H4585.93L4570.4 1908.93ZM4313.65 950.735L4329.18 1008.69H4818.78L4803.25 950.735L4787.72 892.779H4298.12L4313.65 950.735ZM4803.25 950.735H4743.25L4778.45 1082.1H4838.45H4898.45L4863.25 950.735H4803.25ZM4838.45 1082.1L4822.92 1024.15H4507.72L4523.25 1082.1L4538.78 1140.06H4853.98L4838.45 1082.1ZM4523.25 1082.1H4463.25L4526.2 1317.01H4586.2H4646.2L4583.25 1082.1H4523.25ZM4586.2 1317.01L4601.72 1374.97H4883.32L4867.8 1317.01L4852.27 1259.06H4570.67L4586.2 1317.01ZM4867.8 1317.01L4806.07 1307.6L4818.87 1438.96L4880.59 1448.38L4942.32 1457.8L4929.52 1326.43L4867.8 1317.01ZM4880.59 1448.38L4865.07 1390.42H4605.87L4621.39 1448.38L4636.92 1506.34H4896.12L4880.59 1448.38ZM4621.39 1448.38H4561.39L4649.6 1777.57H4709.6H4769.6L4681.39 1448.38H4621.39ZM4709.6 1777.57L4725.13 1835.52H5040.33L5024.8 1777.57L5009.27 1719.61H4694.07L4709.6 1777.57ZM5024.8 1777.57H4964.8L5000 1908.93H5060H5120L5084.8 1777.57H5024.8ZM5060 1908.93L5044.47 1850.98H4554.87L4570.4 1908.93L4585.93 1966.89H5075.53L5060 1908.93ZM4570.4 1908.93H4630.4L4373.65 950.735H4313.65H4253.65L4510.4 1908.93H4570.4ZM4974.9 950.735L4959.37 892.779H4899.37L4914.9 950.735H4974.9ZM5445.06 967.735L5429.75 1018.52L5431.5 1019.33L5433.28 1020.06L5445.06 967.735ZM5501.51 1017.19L5447.71 1032.44L5448.56 1033.99L5449.5 1035.52L5501.51 1017.19ZM5606.64 1403.56L5668.49 1414.57L5668.48 1414.41L5668.47 1414.24L5606.64 1403.56ZM5578.15 1482.38L5626.82 1528.52L5627.3 1528.09L5627.76 1527.64L5578.15 1482.38ZM5299.62 1511.74L5284.09 1453.79H5224.09L5239.62 1511.74H5299.62ZM5406.05 1908.93L5421.58 1966.89H5481.58L5466.05 1908.93H5406.05ZM5231.65 1908.93H5171.65L5187.18 1966.89H5247.18L5231.65 1908.93ZM5649.53 1939.84L5599.34 1961L5635.52 2014.67L5685.63 1993.91L5649.53 1939.84ZM5354.74 1502.47L5336.76 1444.56L5253.51 1447.91L5304.55 1523.63L5354.74 1502.47ZM5470.3 1497.84L5470.25 1441.72L5461.09 1439.58L5452.32 1439.93L5470.3 1497.84ZM5523.21 1510.2L5554.65 1469.22L5540.08 1458.03L5523.17 1454.08L5523.21 1510.2ZM5533.28 1517.93L5581.94 1494.58L5574.74 1484.63L5564.73 1476.95L5533.28 1517.93ZM5794.98 1879.57L5831.08 1933.63L5883.84 1911.77L5843.64 1856.22L5794.98 1879.57ZM5414.24 1360.29L5470.07 1397.72L5470.56 1396.92L5471.01 1396.09L5414.24 1360.29ZM5347.46 1099.1L5308.07 1133.19L5309.43 1134.52L5310.85 1135.8L5347.46 1099.1ZM5184.5 1082.1L5168.97 1024.15H5108.97L5124.5 1082.1H5184.5ZM5264.42 1380.38H5204.42L5219.95 1438.33H5279.95L5264.42 1380.38ZM4974.9 950.735L4990.43 1008.69H5355.23L5339.7 950.735L5324.17 892.779H4959.37L4974.9 950.735ZM5339.7 950.735L5355.23 1008.69C5398.46 1008.69 5420.99 1014.45 5429.75 1018.52L5445.06 967.735L5460.36 916.953C5420.38 898.358 5372.67 892.779 5324.17 892.779L5339.7 950.735ZM5445.06 967.735L5433.28 1020.06C5441.13 1023.27 5444.4 1026.43 5447.71 1032.44L5501.51 1017.19L5555.31 1001.94C5533.67 962.621 5499.3 932.802 5456.83 915.409L5445.06 967.735ZM5501.51 1017.19L5449.5 1035.52C5457.92 1049.25 5466.81 1069.84 5474.66 1099.1H5534.66H5594.66C5584.83 1062.43 5571.63 1028.4 5553.52 998.863L5501.51 1017.19ZM5534.66 1099.1H5474.66L5528.08 1298.47H5588.08H5648.08L5594.66 1099.1H5534.66ZM5588.08 1298.47H5528.08C5537.15 1332.35 5542.65 1363.78 5544.8 1392.88L5606.64 1403.56L5668.47 1414.24C5665.75 1377.4 5658.88 1338.77 5648.08 1298.47H5588.08ZM5606.64 1403.56L5544.78 1392.55C5546.01 1410.77 5541.01 1424.98 5528.55 1437.12L5578.15 1482.38L5627.76 1527.64C5657.59 1498.57 5671.58 1460.23 5668.49 1414.57L5606.64 1403.56ZM5578.15 1482.38L5529.49 1436.24C5520.94 1444.05 5496.36 1453.79 5439.29 1453.79L5454.82 1511.74L5470.35 1569.7C5534.88 1569.7 5592.53 1559.86 5626.82 1528.52L5578.15 1482.38ZM5454.82 1511.74L5439.29 1453.79H5284.09L5299.62 1511.74L5315.15 1569.7H5470.35L5454.82 1511.74ZM5299.62 1511.74H5239.62L5346.05 1908.93H5406.05H5466.05L5359.62 1511.74H5299.62ZM5406.05 1908.93L5390.52 1850.98H5216.12L5231.65 1908.93L5247.18 1966.89H5421.58L5406.05 1908.93ZM5231.65 1908.93H5291.65L5034.9 950.735H4974.9H4914.9L5171.65 1908.93H5231.65ZM5649.53 1939.84L5699.72 1918.68L5404.93 1481.31L5354.74 1502.47L5304.55 1523.63L5599.34 1961L5649.53 1939.84ZM5354.74 1502.47L5372.72 1560.38L5488.28 1555.74L5470.3 1497.84L5452.32 1439.93L5336.76 1444.56L5354.74 1502.47ZM5470.3 1497.84L5470.34 1553.95L5523.25 1566.32L5523.21 1510.2L5523.17 1454.08L5470.25 1441.72L5470.3 1497.84ZM5523.21 1510.2L5491.76 1551.18L5501.83 1558.91L5533.28 1517.93L5564.73 1476.95L5554.65 1469.22L5523.21 1510.2ZM5533.28 1517.93L5484.62 1541.27L5746.32 1902.92L5794.98 1879.57L5843.64 1856.22L5581.94 1494.58L5533.28 1517.93ZM5794.98 1879.57L5758.88 1825.5L5613.43 1885.78L5649.53 1939.84L5685.63 1993.91L5831.08 1933.63L5794.98 1879.57ZM5362.02 1380.38L5377.55 1438.33C5413.41 1438.33 5450.88 1429.29 5470.07 1397.72L5414.24 1360.29L5358.41 1322.85C5359.6 1320.88 5360.97 1320.51 5360.09 1320.85C5358.82 1321.34 5354.89 1322.42 5346.49 1322.42L5362.02 1380.38ZM5414.24 1360.29L5471.01 1396.09C5487.52 1365.83 5482.38 1324.97 5472.38 1287.65H5412.38H5352.38C5356.14 1301.71 5357.55 1311.58 5357.72 1318.1C5357.89 1324.74 5356.72 1325.84 5357.47 1324.48L5414.24 1360.29ZM5412.38 1287.65H5472.38L5442.98 1177.92H5382.98H5322.98L5352.38 1287.65H5412.38ZM5382.98 1177.92H5442.98C5436.98 1155.55 5430.2 1134.97 5422.2 1117.23C5414.96 1101.16 5403.41 1079.76 5384.06 1062.4L5347.46 1099.1L5310.85 1135.8C5306.85 1132.21 5305.41 1129.76 5305.9 1130.51C5306.27 1131.09 5307.53 1133.18 5309.42 1137.38C5313.27 1145.91 5317.93 1159.08 5322.98 1177.92H5382.98ZM5347.46 1099.1L5386.85 1065.01C5350.88 1029.79 5305.12 1024.15 5274.57 1024.15L5290.1 1082.1L5305.63 1140.06C5310.15 1140.06 5313.64 1140.3 5316.2 1140.62C5318.78 1140.94 5320.03 1141.28 5320.2 1141.33C5320.35 1141.38 5319.02 1141 5316.73 1139.73C5314.33 1138.4 5311.22 1136.28 5308.07 1133.19L5347.46 1099.1ZM5290.1 1082.1L5274.57 1024.15H5168.97L5184.5 1082.1L5200.03 1140.06H5305.63L5290.1 1082.1ZM5184.5 1082.1H5124.5L5204.42 1380.38H5264.42H5324.42L5244.5 1082.1H5184.5ZM5264.42 1380.38L5279.95 1438.33H5377.55L5362.02 1380.38L5346.49 1322.42H5248.89L5264.42 1380.38ZM5952.27 1908.93H5892.27L5907.8 1966.89H5967.8L5952.27 1908.93ZM5695.53 950.735L5680 892.779H5620L5635.53 950.735H5695.53ZM5869.93 950.735L5922.68 933.651L5898.68 892.779H5854.4L5869.93 950.735ZM6223.02 1551.93H6283.02L6280.67 1543.19L6275.77 1534.84L6223.02 1551.93ZM6225.5 1561.2H6165.5L6181.03 1619.16H6241.03L6225.5 1561.2ZM6227.1 1561.2L6242.63 1619.16H6302.63L6287.1 1561.2H6227.1ZM6063.53 950.735L6048 892.779H5988L6003.53 950.735H6063.53ZM6237.93 950.735H6297.93L6282.4 892.779H6222.4L6237.93 950.735ZM6494.67 1908.93L6510.2 1966.89H6570.2L6554.67 1908.93H6494.67ZM6315.47 1908.93L6263.46 1927.26L6287.76 1966.89H6331L6315.47 1908.93ZM5982.92 1366.47L5925.72 1374.67L5927.87 1379.84L5930.91 1384.8L5982.92 1366.47ZM5978.42 1355.65L6035.62 1347.45L6014.93 1297.7H5962.89L5978.42 1355.65ZM5976.82 1355.65L5961.29 1297.7H5901.29L5916.82 1355.65H5976.82ZM6125.07 1908.93L6140.6 1966.89H6200.6L6185.07 1908.93H6125.07ZM5952.27 1908.93H6012.27L5755.53 950.735H5695.53H5635.53L5892.27 1908.93H5952.27ZM5695.53 950.735L5711.06 1008.69H5885.46L5869.93 950.735L5854.4 892.779H5680L5695.53 950.735ZM5869.93 950.735L5817.17 967.819L6170.26 1569.01L6223.02 1551.93L6275.77 1534.84L5922.68 933.651L5869.93 950.735ZM6223.02 1551.93H6163.02L6165.5 1561.2H6225.5H6285.5L6283.02 1551.93H6223.02ZM6225.5 1561.2L6241.03 1619.16H6242.63L6227.1 1561.2L6211.57 1503.24H6209.97L6225.5 1561.2ZM6227.1 1561.2H6287.1L6123.53 950.735H6063.53H6003.53L6167.1 1561.2H6227.1ZM6063.53 950.735L6079.06 1008.69H6253.46L6237.93 950.735L6222.4 892.779H6048L6063.53 950.735ZM6237.93 950.735H6177.93L6434.67 1908.93H6494.67H6554.67L6297.93 950.735H6237.93ZM6494.67 1908.93L6479.15 1850.98H6299.95L6315.47 1908.93L6331 1966.89H6510.2L6494.67 1908.93ZM6315.47 1908.93L6367.48 1890.61L6034.93 1348.14L5982.92 1366.47L5930.91 1384.8L6263.46 1927.26L6315.47 1908.93ZM5982.92 1366.47L6040.12 1358.27L6035.62 1347.45L5978.42 1355.65L5921.22 1363.85L5925.72 1374.67L5982.92 1366.47ZM5978.42 1355.65L5962.89 1297.7H5961.29L5976.82 1355.65L5992.35 1413.61H5993.95L5978.42 1355.65ZM5976.82 1355.65H5916.82L6065.07 1908.93H6125.07H6185.07L6036.82 1355.65H5976.82ZM6125.07 1908.93L6109.55 1850.98H5936.75L5952.27 1908.93L5967.8 1966.89H6140.6L6125.07 1908.93ZM6436.46 950.735L6420.93 892.779H6360.93L6376.46 950.735H6436.46ZM6926.06 950.735H6986.06L6970.53 892.779H6910.53L6926.06 950.735ZM6961.26 1082.1L6976.79 1140.06H7036.79L7021.26 1082.1H6961.26ZM6646.06 1082.1L6630.53 1024.15H6570.53L6586.06 1082.1H6646.06ZM6709.01 1317.01H6649.01L6664.54 1374.97H6724.54L6709.01 1317.01ZM6990.61 1317.01L7052.33 1326.43L7045.77 1259.06H6975.08L6990.61 1317.01ZM7003.41 1448.38L7018.94 1506.34H7069.86L7065.13 1457.8L7003.41 1448.38ZM6744.21 1448.38L6728.68 1390.42H6668.68L6684.21 1448.38H6744.21ZM6832.41 1777.57H6772.41L6787.94 1835.52H6847.94L6832.41 1777.57ZM7147.61 1777.57H7207.61L7192.08 1719.61H7132.08L7147.61 1777.57ZM7182.81 1908.93L7198.34 1966.89H7258.34L7242.81 1908.93H7182.81ZM6693.21 1908.93H6633.21L6648.74 1966.89H6708.74L6693.21 1908.93ZM6436.46 950.735L6451.99 1008.69H6941.59L6926.06 950.735L6910.53 892.779H6420.93L6436.46 950.735ZM6926.06 950.735H6866.06L6901.26 1082.1H6961.26H7021.26L6986.06 950.735H6926.06ZM6961.26 1082.1L6945.73 1024.15H6630.53L6646.06 1082.1L6661.59 1140.06H6976.79L6961.26 1082.1ZM6646.06 1082.1H6586.06L6649.01 1317.01H6709.01H6769.01L6706.06 1082.1H6646.06ZM6709.01 1317.01L6724.54 1374.97H7006.14L6990.61 1317.01L6975.08 1259.06H6693.48L6709.01 1317.01ZM6990.61 1317.01L6928.88 1307.6L6941.68 1438.96L7003.41 1448.38L7065.13 1457.8L7052.33 1326.43L6990.61 1317.01ZM7003.41 1448.38L6987.88 1390.42H6728.68L6744.21 1448.38L6759.74 1506.34H7018.94L7003.41 1448.38ZM6744.21 1448.38H6684.21L6772.41 1777.57H6832.41H6892.41L6804.21 1448.38H6744.21ZM6832.41 1777.57L6847.94 1835.52H7163.14L7147.61 1777.57L7132.08 1719.61H6816.88L6832.41 1777.57ZM7147.61 1777.57H7087.61L7122.81 1908.93H7182.81H7242.81L7207.61 1777.57H7147.61ZM7182.81 1908.93L7167.28 1850.98H6677.68L6693.21 1908.93L6708.74 1966.89H7198.34L7182.81 1908.93ZM6693.21 1908.93H6753.21L6496.46 950.735H6436.46H6376.46L6633.21 1908.93H6693.21ZM7097.71 950.735L7082.18 892.779H7022.18L7037.71 950.735H7097.71ZM7567.87 967.735L7552.56 1018.52L7554.32 1019.33L7556.09 1020.06L7567.87 967.735ZM7624.32 1017.19L7570.52 1032.44L7571.37 1033.99L7572.31 1035.52L7624.32 1017.19ZM7729.45 1403.56L7791.31 1414.57L7791.29 1414.41L7791.28 1414.24L7729.45 1403.56ZM7700.97 1482.38L7749.64 1528.52L7750.11 1528.09L7750.58 1527.64L7700.97 1482.38ZM7422.44 1511.74L7406.91 1453.79H7346.91L7362.44 1511.74H7422.44ZM7528.86 1908.93L7544.39 1966.89H7604.39L7588.86 1908.93H7528.86ZM7354.46 1908.93H7294.46L7309.99 1966.89H7369.99L7354.46 1908.93ZM7772.34 1939.84L7722.16 1961L7758.33 2014.67L7808.44 1993.91L7772.34 1939.84ZM7477.55 1502.47L7459.57 1444.56L7376.32 1447.91L7427.36 1523.63L7477.55 1502.47ZM7593.11 1497.84L7593.06 1441.72L7583.9 1439.58L7575.13 1439.93L7593.11 1497.84ZM7646.02 1510.2L7677.47 1469.22L7662.89 1458.03L7645.98 1454.08L7646.02 1510.2ZM7656.09 1517.93L7704.75 1494.58L7697.55 1484.63L7687.54 1476.95L7656.09 1517.93ZM7917.79 1879.57L7953.89 1933.63L8006.65 1911.77L7966.45 1856.22L7917.79 1879.57ZM7537.05 1360.29L7592.89 1397.72L7593.38 1396.92L7593.83 1396.09L7537.05 1360.29ZM7470.27 1099.1L7430.88 1133.19L7432.24 1134.52L7433.66 1135.8L7470.27 1099.1ZM7307.31 1082.1L7291.78 1024.15H7231.78L7247.31 1082.1H7307.31ZM7387.24 1380.38H7327.24L7342.77 1438.33H7402.77L7387.24 1380.38ZM7097.71 950.735L7113.24 1008.69H7478.04L7462.51 950.735L7446.98 892.779H7082.18L7097.71 950.735ZM7462.51 950.735L7478.04 1008.69C7521.27 1008.69 7543.81 1014.45 7552.56 1018.52L7567.87 967.735L7583.18 916.953C7543.19 898.358 7495.49 892.779 7446.98 892.779L7462.51 950.735ZM7567.87 967.735L7556.09 1020.06C7563.94 1023.27 7567.21 1026.43 7570.52 1032.44L7624.32 1017.19L7678.12 1001.94C7656.48 962.621 7622.12 932.802 7579.64 915.409L7567.87 967.735ZM7624.32 1017.19L7572.31 1035.52C7580.73 1049.25 7589.63 1069.84 7597.47 1099.1H7657.47H7717.47C7707.64 1062.43 7694.44 1028.4 7676.33 998.863L7624.32 1017.19ZM7657.47 1099.1H7597.47L7650.89 1298.47H7710.89H7770.89L7717.47 1099.1H7657.47ZM7710.89 1298.47H7650.89C7659.97 1332.35 7665.47 1363.78 7667.61 1392.88L7729.45 1403.56L7791.28 1414.24C7788.56 1377.4 7781.69 1338.77 7770.89 1298.47H7710.89ZM7729.45 1403.56L7667.59 1392.55C7668.82 1410.77 7663.82 1424.98 7651.36 1437.12L7700.97 1482.38L7750.58 1527.64C7780.41 1498.57 7794.39 1460.23 7791.31 1414.57L7729.45 1403.56ZM7700.97 1482.38L7652.3 1436.24C7643.75 1444.05 7619.17 1453.79 7562.11 1453.79L7577.64 1511.74L7593.16 1569.7C7657.7 1569.7 7715.34 1559.86 7749.64 1528.52L7700.97 1482.38ZM7577.64 1511.74L7562.11 1453.79H7406.91L7422.44 1511.74L7437.96 1569.7H7593.16L7577.64 1511.74ZM7422.44 1511.74H7362.44L7468.86 1908.93H7528.86H7588.86L7482.44 1511.74H7422.44ZM7528.86 1908.93L7513.33 1850.98H7338.93L7354.46 1908.93L7369.99 1966.89H7544.39L7528.86 1908.93ZM7354.46 1908.93H7414.46L7157.71 950.735H7097.71H7037.71L7294.46 1908.93H7354.46ZM7772.34 1939.84L7822.53 1918.68L7527.74 1481.31L7477.55 1502.47L7427.36 1523.63L7722.16 1961L7772.34 1939.84ZM7477.55 1502.47L7495.53 1560.38L7611.09 1555.74L7593.11 1497.84L7575.13 1439.93L7459.57 1444.56L7477.55 1502.47ZM7593.11 1497.84L7593.15 1553.95L7646.07 1566.32L7646.02 1510.2L7645.98 1454.08L7593.06 1441.72L7593.11 1497.84ZM7646.02 1510.2L7614.58 1551.18L7624.65 1558.91L7656.09 1517.93L7687.54 1476.95L7677.47 1469.22L7646.02 1510.2ZM7656.09 1517.93L7607.43 1541.27L7869.13 1902.92L7917.79 1879.57L7966.45 1856.22L7704.75 1494.58L7656.09 1517.93ZM7917.79 1879.57L7881.69 1825.5L7736.24 1885.78L7772.34 1939.84L7808.44 1993.91L7953.89 1933.63L7917.79 1879.57ZM7484.84 1380.38L7500.37 1438.33C7536.22 1438.33 7573.69 1429.29 7592.89 1397.72L7537.05 1360.29L7481.22 1322.85C7482.42 1320.88 7483.79 1320.51 7482.91 1320.85C7481.63 1321.34 7477.71 1322.42 7469.31 1322.42L7484.84 1380.38ZM7537.05 1360.29L7593.83 1396.09C7610.33 1365.83 7605.19 1324.97 7595.19 1287.65H7535.19H7475.19C7478.96 1301.71 7480.36 1311.58 7480.53 1318.1C7480.7 1324.74 7479.54 1325.84 7480.28 1324.48L7537.05 1360.29ZM7535.19 1287.65H7595.19L7565.79 1177.92H7505.79H7445.79L7475.19 1287.65H7535.19ZM7505.79 1177.92H7565.79C7559.79 1155.55 7553.01 1134.97 7545.01 1117.23C7537.77 1101.16 7526.23 1079.76 7506.87 1062.4L7470.27 1099.1L7433.66 1135.8C7429.66 1132.21 7428.22 1129.76 7428.71 1130.51C7429.09 1131.09 7430.35 1133.18 7432.24 1137.38C7436.08 1145.91 7440.74 1159.08 7445.79 1177.92H7505.79ZM7470.27 1099.1L7509.66 1065.01C7473.7 1029.79 7427.94 1024.15 7397.38 1024.15L7412.91 1082.1L7428.44 1140.06C7432.96 1140.06 7436.45 1140.3 7439.01 1140.62C7441.59 1140.94 7442.84 1141.28 7443.01 1141.33C7443.16 1141.38 7441.83 1141 7439.54 1139.73C7437.14 1138.4 7434.03 1136.28 7430.88 1133.19L7470.27 1099.1ZM7412.91 1082.1L7397.38 1024.15H7291.78L7307.31 1082.1L7322.84 1140.06H7428.44L7412.91 1082.1ZM7307.31 1082.1H7247.31L7327.24 1380.38H7387.24H7447.24L7367.31 1082.1H7307.31ZM7387.24 1380.38L7402.77 1438.33H7500.37L7484.84 1380.38L7469.31 1322.42H7371.71L7387.24 1380.38Z" fill="#FDDC02" mask="url(#path-4-outside-2_1334_2)"/>
<path d="M2867 537H3924L4055 834H2946.5L2867 537Z" fill="#FDDC02"/>
<path d="M3915 537H4970L5101 834H3992.2L3915 537Z" fill="#FDDC02"/>
<path d="M4822 537H5877L6008 834H4899.2L4822 537Z" fill="#FDDC02"/>
<path d="M5875 537H6930L7061 834H5952.2L5875 537Z" fill="#FDDC02"/>
<path d="M6909 537H7964L8095 834H6986.2L6909 537Z" fill="#FDDC02"/>
<path d="M7407 537H8462L8554 834H7484.2L7407 537Z" fill="#FDDC02"/>
<rect x="2870" y="595" width="5415" height="181" fill="#EB1923"/>
<path d="M7857 595H8419.76L8468.15 776H7857V595Z" fill="#EB1923"/>
<rect x="9193" y="1051" width="3572" height="55" fill="#FDDC02"/>
<rect x="9122" y="1990" width="3643" height="55" fill="#FDDC02"/>
<path d="M12765 1106V1051H12820L13099 2045H12765V1990H13024L12775.5 1106H12765Z" fill="#FDDC02"/>
<path d="M8131.78 2173.78C8093.34 2173.78 8060.43 2160.09 8033.06 2132.72C8005.69 2105.34 7992 2072.44 7992 2034V1055.56C7992 1017.12 8005.69 984.211 8033.06 956.838C8060.43 929.464 8093.34 915.778 8131.78 915.778H8201.67V776H8341.44V915.778H8900.56V776H9040.33V915.778H9110.22C9148.66 915.778 9181.57 929.464 9208.94 956.838C9236.31 984.211 9250 1017.12 9250 1055.56V2034C9250 2072.44 9236.31 2105.34 9208.94 2132.72C9181.57 2160.09 9148.66 2173.78 9110.22 2173.78H8131.78ZM8131.78 2034H9110.22V1335.11H8131.78V2034ZM8131.78 1195.33H9110.22V1055.56H8131.78V1195.33Z" fill="#FDDC02"/>
<path d="M7992 1335.11V1055.56C7992 1017.12 8005.69 984.211 8033.06 956.838C8060.43 929.464 8093.34 915.778 8131.78 915.778H8201.67V776H8341.44V915.778H8900.56V776H9040.33V915.778H9110.22C9148.66 915.778 9181.57 929.464 9208.94 956.838C9236.31 984.211 9250 1017.12 9250 1055.56V1335.11H7992Z" fill="#EB1923"/>
<ellipse cx="8340.78" cy="1826.97" rx="70.5482" ry="69.8889" fill="#211E1E"/>
<ellipse cx="8620.34" cy="1826.97" rx="70.5482" ry="69.8889" fill="#211E1E"/>
<ellipse cx="8620.34" cy="1544.78" rx="70.5482" ry="69.8889" fill="#211E1E"/>
<ellipse cx="8340.78" cy="1544.78" rx="70.5482" ry="69.8889" fill="#EB1923"/>
<path d="M9105 1298.16C9111.2 1295.93 9117.34 1292.99 9123.48 1290.05C9124.3 1289.35 9128.16 1288.59 9140.5 1288.59V1284.89C9140.5 1281.25 9138.98 1280.54 9136.64 1279.78C9134.3 1279.78 9131.2 1279.02 9128.16 1279.02C9121.2 1279.02 9115 1279.78 9112.72 1282.72C9108.86 1287.12 9105 1290.82 9101.9 1294.46C9102.72 1295.93 9104.24 1297.45 9105 1298.16ZM9032.48 1322.46C9027.09 1312.13 9021.71 1302.56 9014.75 1294.46C9011.65 1290.82 9003.23 1290.82 9000.89 1294.46C8997.03 1298.92 8995.45 1307.72 8993.93 1316.53C8993.17 1318 8993.17 1319.52 8993.93 1320.99C8995.45 1321.7 8996.27 1323.16 8997.79 1323.92C8999.31 1325.39 9000.89 1324.63 9002.41 1323.92C9005.51 1320.99 9006.27 1316.53 9005.51 1311.42L9010.13 1309.19C9011.65 1310.66 9012.42 1314.36 9013.23 1318V1321.7C9012.42 1323.92 9014.75 1325.39 9017.85 1325.39C9022.47 1324.63 9027.09 1323.16 9032.48 1322.46ZM9014.75 1409.28L9012.69 1394.6C9012.69 1391.12 9011.87 1387.37 9011.11 1383.51L9010.13 1376.88C9007.04 1373.18 9002.41 1369.54 9000.13 1365.84C8976.97 1361.44 8956.15 1356.27 8933.8 1351.11C8929.95 1350.4 8927.61 1348.93 8925.27 1346.7C8916.03 1337.9 8909.88 1328.33 8905.26 1318.76C8901.4 1308.48 8906.79 1302.56 8919.13 1300.38C8935.33 1298.16 8952.29 1295.93 8969.25 1294.46C8973.87 1293.75 8976.97 1292.28 8979.31 1290.05C9003.23 1267.28 9036.39 1262.87 9071.08 1265.81C9081.84 1266.51 9101.9 1270.92 9113.49 1267.28C9149.75 1265.05 9159.75 1280.54 9154.37 1304.79C9152.85 1309.95 9153.61 1315.82 9154.37 1321.7C9165.19 1350.4 9172.09 1379.11 9163.61 1409.28C9152.85 1434.29 9142.03 1460 9151.27 1476.96C9162.85 1502.68 9169.81 1528.45 9162.09 1551.99C9154.37 1586.57 9135.07 1627.01 9144.37 1657.95C9152.85 1678.55 9168.23 1741.78 9179.05 1772.71C9185.19 1794.02 9196.77 1809.52 9209.12 1824.96C9219.17 1839.64 9226.13 1853.61 9230.75 1867.64C9224.56 1867.64 9219.17 1868.34 9212.98 1868.34C9224.56 1933.8 9232.28 2027.25 9250 2042.69C9248.48 2047.09 9247.72 2052.26 9246.14 2056.66C9246.14 2061.12 9237.66 2063.29 9234.61 2068.46C9212.22 2118.48 9179.81 2147.18 9116.59 2164.09V2161.91C9109.68 2144.41 9098.27 2120.38 9087.56 2099.88C9109.03 2086.73 9128.98 2072.81 9142.03 2058.89C9049.45 1977.94 9046.4 1952.17 9030.2 1866.1C9030.2 1862.46 9028.62 1860.99 9026.34 1860.99C9023.24 1860.99 9020.2 1861.7 9017.1 1861.7C9024.82 1889.7 9031.72 1917.64 9039.44 1944.82C8981.6 1986.79 8947.67 2020.61 8935.33 2111.84C8930.71 2128.8 8919.13 2132.44 8906.03 2129.5C8885.21 2122.17 8865.91 2118.47 8849.7 2119.23C8819.64 2115.53 8790.34 2103.03 8761.03 2085.36C8765.66 2062.53 8769.52 2040.51 8774.14 2017.67C8782.62 2020.61 8791.86 2024.31 8798.06 2023.55C8806.54 2025.01 8809.64 2026.48 8813.44 2030.18C8816.54 2032.41 8818.88 2035.34 8828.12 2034.58C8832.74 2034.58 8851.28 2044.91 8857.43 2039.75C8840.46 1914.71 8875.91 1867.63 8966.16 1806.51C8969.26 1805.05 8970.83 1805.75 8974.64 1807.98C8978.5 1811.68 8981.6 1815.38 8985.46 1819.02C8993.18 1822.01 8993.94 1816.79 8989.32 1812.39C8957.68 1794.77 8944.58 1762.37 8938.43 1724.86C8937.62 1723.39 8939.19 1720.45 8932.23 1723.39C8798.82 1768.3 8774.14 1750.63 8686.23 1677.02L8708.73 1640.37C8714.44 1631.4 8720.21 1622.43 8726.08 1613.35C8755.81 1630.15 8771.09 1647.71 8781.04 1665.27C8784.14 1669.68 8786.48 1668.97 8789.58 1666.74C8830.46 1643.2 8872.05 1621.89 8913.75 1601.29C8912.93 1598.35 8912.17 1595.41 8912.17 1593.19C8902.93 1598.35 8893.69 1603.46 8884.44 1607.86C8779.63 1546.92 8720.26 1554.15 8686.28 1414.87C8687.1 1415.09 8688.19 1414.92 8689.27 1414.38C8707.76 1404.54 8724.88 1395.95 8743.91 1386.22L8746.36 1384.97C8759.46 1401.17 8767.94 1425.41 8774.14 1452.65C8772.56 1454.88 8775.66 1458.52 8777.24 1459.29C8825.03 1471.79 8872.05 1484.29 8919.13 1495.33C8906.03 1516.7 8896.78 1535.02 8892.87 1546.81C8889.83 1562.25 8886.73 1575.52 8886.73 1580.63H8895.21C8909.13 1504.9 8927.61 1477.66 9003.99 1443.85C9003.99 1438.68 9003.23 1432.81 9003.23 1427.64C8992.41 1429.82 8981.6 1429.82 8970.83 1427.64C8965.39 1426.18 8960.01 1424.71 8951.53 1424.71C8932.99 1418.78 8939.19 1401.88 8948.43 1403.34C8963.87 1401.17 8974.64 1403.34 8983.17 1406.28C8987.03 1408.51 8999.32 1409.28 9014.75 1409.28Z" fill="#211E1E"/>
<path d="M9105 1298.15C9104.24 1297.45 9102.72 1295.92 9101.9 1294.46C9105 1290.81 9108.86 1287.12 9112.72 1282.71C9115 1279.78 9121.2 1279.02 9128.16 1279.02C9131.2 1279.02 9134.3 1279.78 9136.64 1279.78C9138.98 1280.54 9140.5 1281.24 9140.5 1284.89V1288.58C9128.16 1288.58 9124.3 1289.35 9123.48 1290.05C9117.34 1292.99 9111.2 1295.92 9105 1298.15Z" fill="white"/>
<path d="M9032.49 1322.37C9027.05 1323.08 9022.43 1324.55 9017.81 1325.31C9014.71 1325.31 9012.43 1323.84 9013.19 1321.61V1317.97C9012.43 1314.27 9011.66 1310.57 9010.09 1309.11L9005.47 1311.33C9006.23 1316.44 9005.47 1320.9 9002.37 1323.84C9000.85 1324.55 8999.27 1325.31 8997.75 1323.84C8996.23 1323.08 8995.41 1321.61 8993.89 1320.9C8993.13 1319.38 8993.13 1317.97 8993.89 1316.44C8995.41 1307.64 8996.99 1298.83 9000.85 1294.37C9003.13 1290.73 9011.66 1290.73 9014.71 1294.37C9021.67 1302.47 9027.05 1312.04 9032.49 1322.37Z" fill="white"/>
<path d="M9010.22 1377.62C9010.49 1379.58 9010.82 1381.59 9011.2 1383.55L9012.77 1394.58C9004.4 1395.24 8994.56 1395.29 8983.25 1396C8973.96 1396.71 8963.95 1396.71 8953.95 1396.71C8942.37 1396 8936.17 1396 8930.79 1396C8927.69 1396 8924.59 1395.24 8921.55 1394.53C8910.73 1391.59 8901.49 1385.72 8896.05 1376.86C8891.43 1368.76 8891.43 1354.79 8903.77 1345.22C8906.87 1343.05 8909.97 1345.98 8909.97 1348.16C8909.97 1361.42 8913.83 1370.23 8919.97 1373.93C8934.65 1376.86 8948.51 1376.86 8962.38 1376.86C8975.53 1376.16 8991.73 1376.86 9010.22 1377.62Z" fill="#EB1923"/>
<path d="M8745.65 1379.71C8746.41 1381.94 8746.41 1383.41 8746.41 1384.87C8726.35 1395.15 8706.29 1404.72 8686.28 1414.29C8679.32 1410.64 8671.6 1406.19 8666.22 1402.54C8662.36 1398.85 8666.22 1394.44 8670.84 1396.67C8676.22 1398.14 8681.61 1399.61 8687.8 1401.08H8690.9C8687.04 1394.44 8677.75 1387.1 8670.08 1380.47L8672.36 1376.07C8678.51 1379 8685.47 1381.94 8692.43 1384.87L8680.85 1367.21C8681.61 1366.5 8683.18 1365.74 8684.71 1364.27C8693.19 1373.08 8701.67 1381.94 8710.91 1387.81C8708.63 1376.07 8704.77 1365.03 8700.15 1353.99L8704.77 1351.77C8710.91 1362.8 8717.87 1373.08 8726.35 1382.7C8722.49 1374.6 8717.11 1365.03 8710.15 1356.17C8707.05 1349.59 8715.59 1348.83 8717.87 1350.3C8728.69 1357.64 8736.41 1367.97 8745.65 1379.71Z" fill="#EB1923"/>
<path d="M8708.76 1640.25C8701.15 1652.32 8693.71 1664.39 8686.2 1677L8708.76 1640.25ZM8726.11 1613.28C8720.07 1622.58 8714.42 1631.39 8708.76 1640.25L8726.11 1613.28ZM8726.32 1612.96L8708.76 1640.25L8686.2 1677C8683.16 1674.77 8680.82 1672.54 8677.72 1670.31C8676.2 1668.9 8666.2 1663.74 8660.76 1660.04C8659.24 1657.86 8660 1655.63 8663.1 1654.87C8668.48 1654.17 8673.86 1654.17 8679.3 1653.46C8673.1 1650.47 8666.96 1646.83 8660.76 1643.84C8660.76 1642.42 8660.76 1640.19 8661.58 1638.73C8668.48 1638.73 8675.44 1638.02 8682.4 1638.02C8676.96 1633.56 8669.24 1629.87 8665.38 1625.46C8662.34 1620.3 8667.72 1618.12 8670 1619.59C8677.72 1620.3 8685.44 1621.82 8692.4 1621.06L8677.72 1607.09C8678.54 1605.62 8680.06 1604.15 8680.82 1603.39C8687.78 1605.62 8695.5 1608.55 8702.4 1611.49C8699.36 1607.09 8696.26 1601.92 8693.16 1597.52C8693.92 1596.05 8694.68 1596.05 8696.26 1594.58C8710.94 1602.68 8720.94 1608.55 8726.32 1612.96Z" fill="#EB1923"/>
<path d="M9087.32 2099.25C9097.27 2121.16 9106.46 2142.36 9116.41 2163.57C9108.91 2167.7 9101.95 2170.63 9095.8 2173.57C9099.66 2166.94 9103.52 2160.36 9106.57 2153.67C9098.9 2158.84 9091.18 2164.76 9083.46 2170.63C9088.84 2162.53 9093.46 2154.43 9098.09 2146.33C9088.84 2147.8 9078.84 2150.03 9069.6 2152.2C9077.26 2144.87 9084.98 2138.23 9092.7 2130.89C9084.22 2133.83 9076.5 2137.53 9068.78 2140.46C9073.4 2133.12 9078.84 2126.49 9083.46 2119.86C9075.74 2119.86 9067.26 2120.56 9060.3 2121.32C9068.78 2113.99 9078.03 2106.59 9087.32 2099.25Z" fill="#EB1923"/>
<path d="M8761.1 2085.34L8741.03 2086.81L8758.76 2072.83L8730.21 2065.49L8759.52 2054.46L8736.41 2041.19L8762.62 2037.5L8740.22 2019.12L8770.34 2021.35L8751.8 2011.78L8774.2 2017.65L8761.1 2085.34Z" fill="#EB1923"/>
</svg>
